<?xml version="1.0" standalone="no"?>
<!DOCTYPE svg PUBLIC "-//W3C//DTD SVG 20010904//EN"
 "http://www.w3.org/TR/2001/REC-SVG-20010904/DTD/svg10.dtd">
<svg version="1.0" xmlns="http://www.w3.org/2000/svg"
 width="964.000000pt" height="1280.000000pt" viewBox="0 0 964.000000 1280.000000"
 preserveAspectRatio="xMidYMid meet">
<metadata>
Created by potrace 1.15, written by Peter Selinger 2001-2017
</metadata>
<g transform="translate(0.000000,1280.000000) scale(0.100000,-0.100000)"
fill="#f4f4f4" stroke="none">
<path d="M4665 12791 c-198 -32 -420 -142 -587 -290 -111 -98 -223 -282 -271
-441 -51 -168 -62 -306 -49 -585 5 -104 8 -191 8 -192 -1 -1 -107 -30 -236
-63 -312 -81 -490 -141 -635 -215 -179 -90 -277 -169 -352 -282 -50 -74 -52
-125 -14 -353 38 -233 64 -438 91 -705 39 -393 65 -513 135 -629 117 -195 379
-402 797 -630 71 -39 87 -54 69 -65 -6 -4 -91 -17 -189 -30 -1539 -194 -1949
-344 -2326 -850 -170 -229 -433 -693 -608 -1076 -274 -596 -429 -1199 -478
-1855 -25 -331 -24 -721 0 -761 8 -11 66 14 306 134 163 81 297 147 298 145 2
-2 55 -110 119 -241 218 -447 388 -699 663 -986 179 -186 392 -365 661 -554
68 -47 356 -235 640 -418 771 -495 910 -590 1153 -787 375 -305 605 -549 826
-877 56 -82 111 -158 122 -168 20 -18 21 -18 69 51 165 238 211 300 309 417
142 170 389 416 539 537 238 191 584 427 1230 838 774 492 1075 723 1362 1042
246 273 388 496 623 976 46 95 87 171 90 170 3 -2 135 -67 293 -146 159 -78
292 -142 296 -142 32 0 23 561 -15 930 -69 671 -228 1229 -520 1820 -200 406
-505 940 -579 1014 -24 23 -31 14 -44 -56 -17 -101 -20 -130 -41 -383 -44
-525 -111 -835 -179 -835 -11 0 -138 34 -282 75 -629 178 -1061 232 -2154 265
-198 6 -375 13 -392 16 l-33 5 0 129 c0 126 1 130 23 134 12 3 130 17 262 31
1295 139 1742 251 1870 470 75 127 21 253 -139 325 -176 80 -446 130 -1096
205 -982 113 -1959 326 -2525 550 -533 211 -920 484 -1004 709 -35 93 -61 369
-77 800 -6 160 -5 188 7 181 8 -5 76 -46 151 -92 410 -253 913 -375 2948 -717
508 -86 721 -126 905 -172 311 -79 524 -183 566 -278 27 -63 55 -192 74 -341
50 -407 151 -845 196 -853 26 -5 27 25 7 128 -58 296 -85 499 -98 728 -19 316
-50 401 -186 498 -203 145 -494 227 -1329 373 -501 89 -607 109 -616 118 -12
14 -40 292 -45 448 -4 112 -2 156 8 174 12 22 51 34 423 126 226 56 462 119
525 140 350 114 592 246 713 387 58 69 61 83 6 33 -121 -109 -334 -213 -664
-323 -402 -135 -922 -229 -988 -179 -33 24 -49 199 -25 281 10 34 46 75 203
231 208 207 299 319 352 435 37 80 63 114 104 135 14 8 95 30 180 50 319 75
554 149 762 241 l99 44 -4 -248 c-3 -254 -8 -287 -44 -287 -21 0 -32 -31 -33
-98 -4 -172 -64 -226 -531 -476 -147 -78 -177 -97 -167 -107 17 -18 380 135
529 222 189 110 239 194 278 463 34 237 62 551 63 712 2 154 2 156 -26 197
-80 122 -302 203 -558 203 -237 0 -367 -56 -424 -182 -59 -132 -30 -245 77
-305 l53 -29 164 2 c109 2 169 -1 178 -8 18 -16 17 -109 -2 -136 -24 -34 -173
-75 -278 -77 -53 -1 -61 2 -80 26 -12 15 -35 61 -51 103 -32 83 -42 92 -27 24
5 -24 12 -74 16 -110 9 -86 -2 -99 -90 -99 -103 0 -108 7 -116 186 -9 182 -33
294 -93 420 -146 309 -414 525 -761 614 -89 23 -297 34 -380 21z m320 -713
c58 -17 78 -28 119 -70 90 -94 142 -262 118 -382 -15 -76 -47 -146 -66 -146
-9 0 -37 16 -62 35 -60 46 -97 65 -159 81 -125 34 -271 6 -373 -71 -33 -25
-66 -45 -75 -45 -14 0 -48 68 -61 124 -12 51 -8 155 9 213 37 127 91 200 178
243 103 50 239 57 372 18z m-110 -558 c63 -30 95 -70 111 -137 20 -83 34 -548
33 -1123 0 -455 -6 -579 -22 -490 -14 74 -27 318 -37 665 -16 565 -30 697 -80
757 -46 54 -49 11 -61 -755 -5 -348 -13 -672 -18 -722 -5 -49 -10 -94 -10 -99
-1 -5 -25 -6 -53 -2 -78 10 -252 47 -259 54 -7 7 4 900 17 1418 l6 260 89 75
c146 122 199 140 284 99z m-865 -525 c168 -163 215 -203 287 -239 86 -43 88
-49 87 -276 0 -169 -3 -201 -20 -243 -17 -45 -24 -51 -79 -74 -58 -25 -370
-136 -674 -241 l-144 -50 -126 58 c-355 162 -556 286 -613 378 l-22 35 55 51
c30 28 102 85 159 126 144 103 200 149 200 161 0 14 -82 -32 -250 -141 -74
-48 -155 -97 -178 -109 -97 -49 -85 10 20 101 123 107 251 187 513 322 156 81
192 102 183 111 -6 7 -123 -34 -240 -84 -128 -55 -250 -119 -376 -199 -56 -35
-105 -62 -108 -59 -23 22 118 149 241 217 265 146 851 341 920 307 11 -6 85
-74 165 -152z m85 -2790 c33 -9 93 -28 133 -43 l72 -27 2 -520 c3 -512 3 -521
-18 -566 -39 -84 -72 -95 -419 -140 -331 -42 -549 -82 -880 -161 -230 -55
-297 -55 -575 1 -428 86 -674 165 -740 236 -24 26 -25 31 -25 168 1 253 42
325 235 414 214 100 480 165 1165 288 340 61 507 94 515 102 18 20 -437 -29
-810 -88 -718 -112 -1073 -227 -1234 -399 -61 -65 -87 -126 -95 -219 -3 -44
-11 -76 -18 -78 -7 -3 -29 11 -50 31 -37 34 -38 36 -38 108 0 65 4 83 35 142
110 217 387 365 945 505 331 83 736 150 1540 254 75 10 204 6 260 -8z m413
-121 c12 -8 31 -33 42 -55 11 -21 23 -39 27 -39 4 0 17 10 31 23 28 26 100 28
148 5 58 -27 58 -28 62 -760 l3 -668 -104 0 -104 0 -7 77 c-3 42 -7 229 -7
417 -2 361 -14 826 -17 651 -3 -122 -17 -447 -37 -816 -8 -152 -15 -285 -15
-296 0 -17 -9 -22 -45 -27 -57 -9 -81 4 -95 52 -18 66 -7 1004 16 1319 8 117
44 158 102 117z m892 -204 c36 -10 463 -81 1165 -195 665 -108 795 -138 795
-184 0 -61 -293 -199 -460 -217 -85 -9 -104 -18 -67 -35 37 -17 154 0 278 41
92 30 125 44 283 129 78 41 115 48 124 23 7 -21 -73 -87 -157 -130 -171 -89
-324 -127 -778 -192 -453 -64 -785 -98 -1124 -114 l-96 -4 -6 146 c-4 81 -9
271 -13 422 -3 151 -7 285 -10 298 -5 25 9 28 66 12z m-4261 -1415 c35 -216
68 -382 122 -600 72 -296 87 -428 43 -384 -43 44 -149 350 -248 719 -61 225
-99 347 -113 361 -17 17 -41 -1 -76 -54 -82 -125 -85 -204 -18 -422 120 -393
257 -734 448 -1117 102 -204 178 -326 223 -358 35 -25 129 -45 166 -36 24 6
26 10 21 41 -3 19 -39 95 -81 169 -79 142 -106 198 -106 224 0 21 38 -15 95
-88 61 -79 315 -453 311 -458 -2 -2 -107 -19 -233 -38 -291 -43 -415 -67 -583
-110 -275 -70 -435 -130 -755 -280 -121 -56 -229 -104 -240 -106 -19 -3 -20 3
-23 102 -8 263 57 921 118 1201 137 626 369 1174 771 1824 l74 120 31 -285
c17 -157 41 -348 53 -425z m372 405 c69 -33 170 -76 224 -95 200 -73 639 -177
820 -195 225 -22 1110 -51 2280 -75 1327 -26 1876 -47 2175 -81 248 -28 690
-126 965 -214 226 -73 390 -160 415 -220 12 -28 12 -77 2 -299 -15 -323 -16
-1082 -1 -1244 13 -150 35 -237 109 -420 33 -81 60 -150 60 -152 0 -2 -45 -31
-100 -65 -221 -136 -439 -198 -735 -207 -196 -6 -305 8 -462 58 -301 96 -474
254 -378 344 61 55 206 52 484 -11 86 -20 181 -36 212 -37 97 -3 109 22 131
273 6 77 15 144 18 150 4 6 81 -23 198 -76 106 -47 198 -84 204 -82 18 6 -65
64 -166 115 -118 59 -271 121 -441 177 -480 160 -795 188 -2565 226 -1300 28
-1923 63 -2349 131 -368 58 -595 131 -922 295 l-167 83 -6 78 c-3 43 -8 134
-11 203 -23 472 -66 879 -130 1215 -30 156 -31 185 -8 185 9 0 74 -27 144 -60z
m7256 -261 c67 -105 227 -447 305 -654 125 -331 213 -667 267 -1020 26 -170
70 -563 78 -692 5 -91 4 -103 -10 -103 -9 0 -20 8 -26 18 -18 36 -52 195 -96
454 -49 289 -69 391 -116 568 -73 276 -182 568 -325 872 -99 210 -155 343
-180 425 -34 115 -12 239 37 212 11 -6 41 -42 66 -80z m-6556 -1794 c150 -30
301 -60 334 -65 186 -30 560 -62 910 -80 430 -21 675 -40 728 -56 15 -5 17
-22 17 -172 0 -166 -21 -576 -40 -787 -37 -411 -93 -591 -223 -711 -185 -173
-382 -177 -749 -13 -284 126 -613 331 -857 533 -267 221 -671 633 -730 744
-10 20 -9 23 13 31 38 15 122 22 374 30 128 4 237 12 242 17 11 11 -71 154
-231 405 -94 147 -107 179 -75 179 6 0 136 -25 287 -55z m3624 -170 c337 -17
668 -41 765 -56 76 -11 96 -29 106 -96 10 -66 -3 -215 -25 -303 -11 -41 -31
-119 -45 -174 -14 -54 -26 -114 -26 -134 0 -50 35 -116 83 -158 90 -76 303
-162 534 -215 57 -13 103 -27 103 -30 0 -10 -213 -174 -315 -242 -377 -255
-854 -454 -1031 -432 -133 16 -320 155 -391 290 -58 111 -100 376 -137 855
-19 233 -39 698 -31 710 3 5 29 7 58 4 28 -2 187 -11 352 -19z m-1377 -25 c32
-60 -11 -1133 -68 -1670 -28 -260 -40 -609 -40 -1155 0 -483 9 -656 36 -726
25 -62 161 -176 184 -153 19 19 30 674 37 2182 l6 1552 104 0 103 0 0 -2136 0
-2136 -161 153 c-415 397 -575 515 -1839 1349 -646 427 -669 442 -842 572
-181 136 -290 229 -442 377 -358 351 -563 657 -765 1144 l-40 97 23 15 c29 19
184 73 234 81 23 4 48 1 61 -5 12 -7 63 -65 114 -129 238 -299 647 -698 946
-924 335 -253 789 -497 1092 -587 84 -25 278 -61 324 -61 6 1 -55 27 -135 59
-742 297 -1528 896 -2002 1526 -41 55 -81 110 -87 123 -16 30 -1 55 45 77 64
30 100 8 201 -123 284 -368 677 -724 1123 -1018 377 -248 688 -392 923 -425
107 -16 284 -1 367 30 138 52 208 165 250 404 27 155 36 259 65 752 27 464 42
684 51 728 11 56 106 76 132 27z m726 -111 c14 -128 28 -337 41 -609 40 -856
77 -1035 250 -1207 201 -198 496 -223 905 -75 307 111 639 310 1065 641 284
221 426 306 441 266 8 -20 -10 -48 -87 -136 -269 -304 -802 -698 -1249 -922
-283 -142 -473 -204 -654 -213 -376 -20 -617 188 -681 588 -37 233 -68 847
-69 1388 -1 341 3 434 19 418 2 -2 11 -65 19 -139z"/>
<path d="M5553 6411 c-64 -6 -95 -23 -77 -41 18 -18 108 -28 304 -35 563 -17
1173 -73 1430 -130 109 -25 113 -26 108 -31 -3 -2 -144 9 -314 25 -665 65
-1073 93 -1144 81 l-35 -7 40 -11 c22 -6 173 -30 335 -52 302 -42 673 -96 723
-106 78 -16 -14 -12 -373 16 -216 16 -404 30 -419 29 -14 0 57 -16 159 -35
980 -182 1328 -281 1537 -438 154 -116 226 -245 358 -643 25 -79 50 -145 54
-148 5 -2 11 37 14 88 23 329 57 919 57 983 l0 41 -172 66 c-203 76 -296 105
-490 152 -225 54 -532 104 -833 135 -347 35 -1132 73 -1262 61z"/>
<path d="M1583 6268 c-4 -7 -9 -228 -11 -491 l-3 -477 108 -51 c630 -295 1343
-422 2358 -418 301 1 677 13 535 17 -191 6 -745 46 -1005 73 -968 101 -1767
315 -1840 493 -20 48 -43 200 -65 432 -22 234 -36 340 -51 397 -11 40 -14 43
-26 25z"/>
</g>
</svg>
